<svg xmlns="http://www.w3.org/2000/svg" version="1.1" xmlns:xlink="http://www.w3.org/1999/xlink" xmlns:svgjs="http://svgjs.dev/svgjs" width="128" height="128" viewBox="0 0 128 128"><g transform="matrix(0.8046875,0,0,0.8046875,12.333870967741937,12.333870967741937)"><svg viewBox="0 0 155 155" data-background-color="#ffffff" preserveAspectRatio="xMidYMid meet" height="128" width="128" xmlns="http://www.w3.org/2000/svg" xmlns:xlink="http://www.w3.org/1999/xlink"><g id="tight-bounds" transform="matrix(1,0,0,1,0.25,0.25)"><svg viewBox="0 0 154.5 154.5" height="154.5" width="154.5"><g><svg viewBox="0 0 154.5 154.5" height="154.5" width="154.5"><g transform="matrix(1,0,0,1,45.97393342210387,29.509500000000003)"><svg viewBox="0 0 62.55213315579227 95.481" height="95.481" width="62.55213315579227"><g><svg viewBox="0 0 62.55213315579227 95.481" height="95.481" width="62.55213315579227"><g><svg viewBox="0 0 62.55213315579227 95.481" height="95.481" width="62.55213315579227"><g><svg viewBox="0 0 62.55213315579227 95.481" height="95.481" width="62.55213315579227"><g><svg viewBox="0 0 62.55213315579227 95.481" height="95.481" width="62.55213315579227"><g transform="matrix(1,0,0,1,0,0)"><svg width="62.55213315579227" viewBox="2.5 -37.25 24.6 37.55" height="95.481" data-palette-color="#096a2e"><path d="M15.75 0.3L15.75 0.3Q12.5 0.3 10.03-0.45 7.55-1.2 5.88-3.2 4.2-5.2 3.35-8.9 2.5-12.6 2.5-18.6L2.5-18.6Q2.5-24.25 3.38-27.9 4.25-31.55 5.98-33.6 7.7-35.65 10.2-36.45 12.7-37.25 15.9-37.25L15.9-37.25Q18.1-37.25 20.18-37 22.25-36.75 24.03-36.4 25.8-36.05 27.1-35.65L27.1-35.65 27.1-30.9Q26.25-31.1 24.7-31.28 23.15-31.45 21.2-31.58 19.25-31.7 17.15-31.7L17.15-31.7Q14.85-31.7 13.23-31.18 11.6-30.65 10.6-29.25 9.6-27.85 9.15-25.25 8.7-22.65 8.7-18.5L8.7-18.5Q8.7-14.4 9.13-11.8 9.55-9.2 10.48-7.78 11.4-6.35 13.03-5.8 14.65-5.25 17.1-5.25L17.1-5.25Q20.85-5.25 23.25-5.43 25.65-5.6 27.1-5.8L27.1-5.8 27.1-1.05Q25.7-0.65 23.93-0.35 22.15-0.05 20.13 0.13 18.1 0.3 15.75 0.3Z" opacity="1" transform="matrix(1,0,0,1,0,0)" fill="#096a2e" class="undefined-text-0" data-fill-palette-color="primary" id="text-0"></path></svg></g></svg></g></svg></g></svg></g></svg></g></svg></g></svg></g><defs></defs></svg><rect width="154.5" height="154.5" fill="none" stroke="none" visibility="hidden"></rect></g></svg></g></svg>