<svg xmlns="http://www.w3.org/2000/svg" version="1.1" xmlns:xlink="http://www.w3.org/1999/xlink" xmlns:svgjs="http://svgjs.dev/svgjs" width="2000" height="1247" viewBox="0 0 2000 1247"><g transform="matrix(1,0,0,1,-1.2121212121211329,0.504858299595071)"><svg viewBox="0 0 396 247" data-background-color="#ffffff" preserveAspectRatio="xMidYMid meet" height="1247" width="2000" xmlns="http://www.w3.org/2000/svg" xmlns:xlink="http://www.w3.org/1999/xlink"><g id="tight-bounds" transform="matrix(1,0,0,1,0.2400000000000091,-0.09999999999999432)"><svg viewBox="0 0 395.52 247.2" height="247.2" width="395.52"><g><svg></svg></g><g><svg viewBox="0 0 395.52 247.2" height="247.2" width="395.52"><g transform="matrix(1,0,0,1,75.54432,92.02604671802773)"><svg viewBox="0 0 244.43135999999998 63.147906563944524" height="63.147906563944524" width="244.43135999999998"><g><svg viewBox="0 0 244.43135999999998 63.147906563944524" height="63.147906563944524" width="244.43135999999998"><g><svg viewBox="0 0 244.43135999999998 63.147906563944524" height="63.147906563944524" width="244.43135999999998"><g><svg viewBox="0 0 244.43135999999998 63.147906563944524" height="63.147906563944524" width="244.43135999999998"><g><svg viewBox="0 0 244.43135999999998 63.147906563944524" height="63.147906563944524" width="244.43135999999998"><g><svg viewBox="0 0 244.43135999999998 63.147906563944524" height="63.147906563944524" width="244.43135999999998"><g transform="matrix(1,0,0,1,0,0)"><svg width="244.43135999999998" viewBox="2.5 -38.45000076293945 194.67999267578125 50.30000305175781" height="63.147906563944524" data-palette-color="#096a2e"><path d="M15.75 0.3L15.75 0.3Q12.5 0.3 10.03-0.45 7.55-1.2 5.88-3.2 4.2-5.2 3.35-8.9 2.5-12.6 2.5-18.6L2.5-18.6Q2.5-24.25 3.38-27.9 4.25-31.55 5.98-33.6 7.7-35.65 10.2-36.45 12.7-37.25 15.9-37.25L15.9-37.25Q18.1-37.25 20.18-37 22.25-36.75 24.03-36.4 25.8-36.05 27.1-35.65L27.1-35.65 27.1-30.9Q26.25-31.1 24.7-31.28 23.15-31.45 21.2-31.58 19.25-31.7 17.15-31.7L17.15-31.7Q14.85-31.7 13.23-31.18 11.6-30.65 10.6-29.25 9.6-27.85 9.15-25.25 8.7-22.65 8.7-18.5L8.7-18.5Q8.7-14.4 9.13-11.8 9.55-9.2 10.48-7.78 11.4-6.35 13.03-5.8 14.65-5.25 17.1-5.25L17.1-5.25Q20.85-5.25 23.25-5.43 25.65-5.6 27.1-5.8L27.1-5.8 27.1-1.05Q25.7-0.65 23.93-0.35 22.15-0.05 20.13 0.13 18.1 0.3 15.75 0.3ZM38.55 0L32.35 0 32.35-38.1 38.55-38.1 38.55-24Q40.15-25.2 42.57-26.23 45-27.25 47.55-27.25L47.55-27.25Q50.5-27.25 52.32-26.05 54.15-24.85 54.97-22.73 55.8-20.6 55.8-17.9L55.8-17.9 55.8 0 49.6 0 49.6-17.15Q49.6-18.55 49.05-19.58 48.5-20.6 47.5-21.13 46.5-21.65 45.15-21.65L45.15-21.65Q43.85-21.65 42.75-21.38 41.65-21.1 40.62-20.6 39.6-20.1 38.55-19.45L38.55-19.45 38.55 0ZM68.2 0L62 0 62-26.8 66.8-26.8 68.2-22.5Q69.8-24.45 71.75-25.8 73.7-27.15 76.4-27.15L76.4-27.15Q76.95-27.15 77.55-27.08 78.15-27 78.65-26.85L78.65-26.85 78.65-20.55Q77.95-20.65 77.15-20.7 76.34-20.75 75.59-20.75L75.59-20.75Q74.05-20.75 72.77-20.4 71.5-20.05 70.4-19.33 69.3-18.6 68.2-17.5L68.2-17.5 68.2 0ZM94.14 0.25L94.14 0.25Q90.99 0.25 88.69-0.4 86.39-1.05 84.94-2.6 83.49-4.15 82.79-6.8 82.09-9.45 82.09-13.45L82.09-13.45Q82.09-17.6 82.79-20.28 83.49-22.95 84.97-24.48 86.44-26 88.74-26.58 91.04-27.15 94.14-27.15L94.14-27.15Q97.34-27.15 99.64-26.53 101.94-25.9 103.39-24.4 104.84-22.9 105.54-20.23 106.24-17.55 106.24-13.45L106.24-13.45Q106.24-9.4 105.57-6.73 104.89-4.05 103.44-2.53 101.99-1 99.69-0.38 97.39 0.25 94.14 0.25ZM94.14-4.7L94.14-4.7Q95.69-4.7 96.79-4.98 97.89-5.25 98.62-6.13 99.34-7 99.69-8.78 100.04-10.55 100.04-13.5L100.04-13.5Q100.04-16.4 99.69-18.15 99.34-19.9 98.62-20.78 97.89-21.65 96.79-21.93 95.69-22.2 94.14-22.2L94.14-22.2Q92.64-22.2 91.54-21.93 90.44-21.65 89.74-20.78 89.04-19.9 88.67-18.15 88.29-16.4 88.29-13.5L88.29-13.5Q88.29-10.55 88.67-8.78 89.04-7 89.74-6.13 90.44-5.25 91.54-4.98 92.64-4.7 94.14-4.7ZM117.94 0L111.74 0 111.74-26.8 116.79-26.8 117.94-24Q119.59-25.25 121.97-26.25 124.34-27.25 126.89-27.25L126.89-27.25Q130.04-27.25 131.84-25.98 133.64-24.7 134.42-22.55 135.19-20.4 135.19-17.85L135.19-17.85 135.19 0 128.99 0 128.99-17.1Q128.99-18.55 128.44-19.55 127.89-20.55 126.92-21.1 125.94-21.65 124.54-21.65L124.54-21.65Q123.24-21.65 122.12-21.4 120.99-21.15 119.99-20.65 118.99-20.15 117.94-19.45L117.94-19.45 117.94 0ZM146.89-31.05L142.19-31.05Q141.24-31.05 141.24-31.95L141.24-31.95 141.24-36.5Q141.24-37.5 142.19-37.5L142.19-37.5 146.89-37.5Q147.34-37.5 147.56-37.2 147.79-36.9 147.79-36.5L147.79-36.5 147.79-31.95Q147.79-31.05 146.89-31.05L146.89-31.05ZM147.59 0L141.39 0 141.39-26.8 147.59-26.8 147.59 0ZM161.89 0L155.69 0 155.69-21.8 151.79-21.8 151.79-25.8 155.69-26.8 155.69-29.05Q155.69-32.25 156.51-34.33 157.34-36.4 159.21-37.43 161.09-38.45 164.19-38.45L164.19-38.45Q165.94-38.45 167.29-38.23 168.64-38 169.59-37.8L169.59-37.8 169.59-33.4 165.34-33.4Q163.99-33.4 163.24-32.95 162.49-32.5 162.19-31.63 161.89-30.75 161.89-29.35L161.89-29.35 161.89-26.8 169.24-26.8 169.24-21.8 161.89-21.8 161.89 0ZM186.18 11.85L181.13 11.85 184.23 0Q182.28 0 180.71-0.75 179.13-1.5 178.03-3 176.93-4.5 176.23-6.85L176.23-6.85 170.73-26.8 177.13-26.8 181.98-8.1Q182.33-6.95 182.83-6.35 183.33-5.75 183.83-5.48 184.33-5.2 184.76-5.15 185.18-5.1 185.33-5.1L185.33-5.1 190.88-26.8 197.18-26.8 188.58 6.9 186.18 11.85Z" opacity="1" transform="matrix(1,0,0,1,0,0)" fill="#ffffff" class="undefined-text-0" data-fill-palette-color="primary" id="text-0"></path></svg></g></svg></g></svg></g></svg></g></svg></g></svg></g></svg></g><g><path d="M0 123.6c0-68.262 55.338-123.6 123.6-123.6 54.624 0 100.973 35.435 117.312 84.572l-3.006 0c-16.227-47.538-61.274-81.725-114.306-81.725-66.69 0-120.753 54.063-120.753 120.753 0 66.69 54.063 120.753 120.753 120.753 53.032 0 98.08-34.187 114.306-81.725h3.006c-16.339 49.137-62.687 84.572-117.312 84.572-68.262 0-123.6-55.338-123.6-123.6z" fill="#ffffff" stroke="transparent" data-fill-palette-color="tertiary"></path></g></svg></g><defs></defs></svg><rect width="395.52" height="247.2" fill="none" stroke="none" visibility="hidden"></rect></g></svg></g></svg>